<svg id="visual" viewBox="0 0 960 540" width="960" height="540" xmlns="http://www.w3.org/2000/svg" xmlns:xlink="http://www.w3.org/1999/xlink" version="1.1"><g stroke-width="1" stroke-linejoin="bevel"><path d="M442.7 278L452.7 331L520.3 233Z" fill="#297ea6" stroke="#297ea6"></path><path d="M566.3 381L564.3 219L520.3 233Z" fill="#112e42" stroke="#112e42"></path><path d="M452.7 331L566.3 381L520.3 233Z" fill="#081a28" stroke="#081a28"></path><path d="M452.7 331L559.3 412L566.3 381Z" fill="#112e42" stroke="#112e42"></path><path d="M413.7 119L413.7 193L520.3 233Z" fill="#112e42" stroke="#112e42"></path><path d="M520.3 233L413.7 193L442.7 278Z" fill="#205a7a" stroke="#205a7a"></path><path d="M325 332L452.7 436L452.7 331Z" fill="#246688" stroke="#246688"></path><path d="M566.3 381L637 239L564.3 219Z" fill="#1d4e6b" stroke="#1d4e6b"></path><path d="M624 386L637 239L566.3 381Z" fill="#19435d" stroke="#19435d"></path><path d="M325 332L452.7 331L442.7 278Z" fill="#0c2435" stroke="#0c2435"></path><path d="M452.7 331L452.7 436L559.3 412Z" fill="#112e42" stroke="#112e42"></path><path d="M559.3 412L624 386L566.3 381Z" fill="#112e42" stroke="#112e42"></path><path d="M307 258L325 332L442.7 278Z" fill="#0c2435" stroke="#0c2435"></path><path d="M559.3 412L619 445L624 386Z" fill="#297ea6" stroke="#297ea6"></path><path d="M726.7 324L678 215L637 239Z" fill="#0c2435" stroke="#0c2435"></path><path d="M553.3 540L619 445L559.3 412Z" fill="#19435d" stroke="#19435d"></path><path d="M726.7 324L637 239L624 386Z" fill="#19435d" stroke="#19435d"></path><path d="M637 239L678 215L564.3 219Z" fill="#15384f" stroke="#15384f"></path><path d="M564.3 219L557.3 109L520.3 233Z" fill="#205a7a" stroke="#205a7a"></path><path d="M678 215L557.3 109L564.3 219Z" fill="#15384f" stroke="#15384f"></path><path d="M557.3 109L413.7 119L520.3 233Z" fill="#246688" stroke="#246688"></path><path d="M413.7 193L307 258L442.7 278Z" fill="#277297" stroke="#277297"></path><path d="M326 149L307 258L413.7 193Z" fill="#297ea6" stroke="#297ea6"></path><path d="M758.7 425L726.7 324L624 386Z" fill="#15384f" stroke="#15384f"></path><path d="M413.7 119L326 149L413.7 193Z" fill="#15384f" stroke="#15384f"></path><path d="M325 332L314 448L452.7 436Z" fill="#246688" stroke="#246688"></path><path d="M452.7 436L553.3 540L559.3 412Z" fill="#205a7a" stroke="#205a7a"></path><path d="M226.3 369L314 448L325 332Z" fill="#205a7a" stroke="#205a7a"></path><path d="M402.7 540L553.3 540L452.7 436Z" fill="#277297" stroke="#277297"></path><path d="M619 445L758.7 425L624 386Z" fill="#246688" stroke="#246688"></path><path d="M726.7 324L759.7 276L678 215Z" fill="#205a7a" stroke="#205a7a"></path><path d="M678 215L676 59L557.3 109Z" fill="#0c2435" stroke="#0c2435"></path><path d="M314 448L402.7 540L452.7 436Z" fill="#15384f" stroke="#15384f"></path><path d="M759.7 276L733.7 144L678 215Z" fill="#1d4e6b" stroke="#1d4e6b"></path><path d="M221.3 142L226.3 301L307 258Z" fill="#1d4e6b" stroke="#1d4e6b"></path><path d="M307 258L226.3 301L325 332Z" fill="#081a28" stroke="#081a28"></path><path d="M553.3 540L641 540L619 445Z" fill="#277297" stroke="#277297"></path><path d="M879.3 347L881.3 307L759.7 276Z" fill="#246688" stroke="#246688"></path><path d="M413.7 119L352 56L326 149Z" fill="#19435d" stroke="#19435d"></path><path d="M326 149L221.3 142L307 258Z" fill="#15384f" stroke="#15384f"></path><path d="M422.7 0L352 56L413.7 119Z" fill="#00101c" stroke="#00101c"></path><path d="M541.3 0L413.7 119L557.3 109Z" fill="#1d4e6b" stroke="#1d4e6b"></path><path d="M739.7 540L758.7 425L619 445Z" fill="#205a7a" stroke="#205a7a"></path><path d="M226.3 301L226.3 369L325 332Z" fill="#19435d" stroke="#19435d"></path><path d="M314 448L293 540L402.7 540Z" fill="#112e42" stroke="#112e42"></path><path d="M733.7 144L676 59L678 215Z" fill="#246688" stroke="#246688"></path><path d="M613 0L541.3 0L557.3 109Z" fill="#0c2435" stroke="#0c2435"></path><path d="M541.3 0L422.7 0L413.7 119Z" fill="#1d4e6b" stroke="#1d4e6b"></path><path d="M676 59L613 0L557.3 109Z" fill="#00101c" stroke="#00101c"></path><path d="M298 0L221.3 142L352 56Z" fill="#19435d" stroke="#19435d"></path><path d="M352 56L221.3 142L326 149Z" fill="#205a7a" stroke="#205a7a"></path><path d="M100.7 328L180.3 413L226.3 369Z" fill="#0c2435" stroke="#0c2435"></path><path d="M201.3 540L293 540L314 448Z" fill="#277297" stroke="#277297"></path><path d="M733.7 144L747.7 56L676 59Z" fill="#15384f" stroke="#15384f"></path><path d="M676 59L726.7 0L613 0Z" fill="#1d4e6b" stroke="#1d4e6b"></path><path d="M814.3 143L747.7 56L733.7 144Z" fill="#277297" stroke="#277297"></path><path d="M641 540L739.7 540L619 445Z" fill="#19435d" stroke="#19435d"></path><path d="M100.7 328L226.3 369L226.3 301Z" fill="#081a28" stroke="#081a28"></path><path d="M226.3 369L180.3 413L314 448Z" fill="#15384f" stroke="#15384f"></path><path d="M759.7 276L814.3 143L733.7 144Z" fill="#19435d" stroke="#19435d"></path><path d="M881.3 307L814.3 143L759.7 276Z" fill="#277297" stroke="#277297"></path><path d="M759.7 276L726.7 324L879.3 347Z" fill="#081a28" stroke="#081a28"></path><path d="M422.7 0L298 0L352 56Z" fill="#277297" stroke="#277297"></path><path d="M298 0L192.3 100L221.3 142Z" fill="#112e42" stroke="#112e42"></path><path d="M221.3 142L128.7 273L226.3 301Z" fill="#15384f" stroke="#15384f"></path><path d="M856.3 0L726.7 0L747.7 56Z" fill="#277297" stroke="#277297"></path><path d="M747.7 56L726.7 0L676 59Z" fill="#19435d" stroke="#19435d"></path><path d="M82.7 159L128.7 273L221.3 142Z" fill="#00101c" stroke="#00101c"></path><path d="M879.3 347L726.7 324L758.7 425Z" fill="#0c2435" stroke="#0c2435"></path><path d="M882.3 425L879.3 347L758.7 425Z" fill="#15384f" stroke="#15384f"></path><path d="M180.3 413L201.3 540L314 448Z" fill="#00101c" stroke="#00101c"></path><path d="M113.7 453L201.3 540L180.3 413Z" fill="#246688" stroke="#246688"></path><path d="M829.3 540L882.3 425L758.7 425Z" fill="#0c2435" stroke="#0c2435"></path><path d="M879.3 347L960 301L881.3 307Z" fill="#277297" stroke="#277297"></path><path d="M0 266L100.7 328L128.7 273Z" fill="#0c2435" stroke="#0c2435"></path><path d="M128.7 273L100.7 328L226.3 301Z" fill="#15384f" stroke="#15384f"></path><path d="M739.7 540L829.3 540L758.7 425Z" fill="#15384f" stroke="#15384f"></path><path d="M960 218L859.3 91L814.3 143Z" fill="#205a7a" stroke="#205a7a"></path><path d="M814.3 143L859.3 91L747.7 56Z" fill="#277297" stroke="#277297"></path><path d="M100.7 328L113.7 453L180.3 413Z" fill="#19435d" stroke="#19435d"></path><path d="M298 0L193.3 0L192.3 100Z" fill="#246688" stroke="#246688"></path><path d="M192.3 100L82.7 159L221.3 142Z" fill="#0c2435" stroke="#0c2435"></path><path d="M97.7 103L82.7 159L192.3 100Z" fill="#277297" stroke="#277297"></path><path d="M0 464L86.7 540L113.7 453Z" fill="#1d4e6b" stroke="#1d4e6b"></path><path d="M131.7 0L97.7 103L192.3 100Z" fill="#246688" stroke="#246688"></path><path d="M960 360L960 301L879.3 347Z" fill="#205a7a" stroke="#205a7a"></path><path d="M881.3 307L960 218L814.3 143Z" fill="#081a28" stroke="#081a28"></path><path d="M960 360L879.3 347L882.3 425Z" fill="#00101c" stroke="#00101c"></path><path d="M960 77L856.3 0L859.3 91Z" fill="#00101c" stroke="#00101c"></path><path d="M859.3 91L856.3 0L747.7 56Z" fill="#112e42" stroke="#112e42"></path><path d="M960 479L960 360L882.3 425Z" fill="#297ea6" stroke="#297ea6"></path><path d="M960 301L960 218L881.3 307Z" fill="#081a28" stroke="#081a28"></path><path d="M193.3 0L131.7 0L192.3 100Z" fill="#081a28" stroke="#081a28"></path><path d="M0 464L113.7 453L100.7 328Z" fill="#081a28" stroke="#081a28"></path><path d="M113.7 453L86.7 540L201.3 540Z" fill="#19435d" stroke="#19435d"></path><path d="M829.3 540L960 479L882.3 425Z" fill="#1d4e6b" stroke="#1d4e6b"></path><path d="M0 153L0 266L82.7 159Z" fill="#205a7a" stroke="#205a7a"></path><path d="M82.7 159L0 266L128.7 273Z" fill="#0c2435" stroke="#0c2435"></path><path d="M0 153L82.7 159L97.7 103Z" fill="#00101c" stroke="#00101c"></path><path d="M0 266L0 322L100.7 328Z" fill="#205a7a" stroke="#205a7a"></path><path d="M960 218L960 77L859.3 91Z" fill="#297ea6" stroke="#297ea6"></path><path d="M829.3 540L960 540L960 479Z" fill="#19435d" stroke="#19435d"></path><path d="M0 65L0 153L97.7 103Z" fill="#15384f" stroke="#15384f"></path><path d="M0 322L0 464L100.7 328Z" fill="#081a28" stroke="#081a28"></path><path d="M960 77L960 0L856.3 0Z" fill="#205a7a" stroke="#205a7a"></path><path d="M131.7 0L0 65L97.7 103Z" fill="#246688" stroke="#246688"></path><path d="M0 464L0 540L86.7 540Z" fill="#246688" stroke="#246688"></path><path d="M131.7 0L0 0L0 65Z" fill="#15384f" stroke="#15384f"></path></g></svg>